HIERARCHY
ROOT Hips
{
	OFFSET 0.000000 0.000000 0.000000 
	CHANNELS 6 Xposition Yposition Zposition Yrotation Zrotation Xrotation 
	JOINT Lumbar
	{
		OFFSET 0.000000 0.000000 0.000000 
		CHANNELS 3 Zrotation Xrotation Yrotation
		JOINT Neck
		{
			OFFSET 0.000000 0.445665 0.000000 
			CHANNELS 3 Zrotation Xrotation Yrotation
			End Site
			{
				OFFSET 0.000000 0.227535 0.000000 
			}
		}
		JOINT RightShoulder
		{
			OFFSET 0.019635 0.377685 0.194865 
			CHANNELS 3 Zrotation Xrotation Yrotation
			JOINT RightElbow
			{
				OFFSET 0.000000 -0.243375 0.000000 
				CHANNELS 2 Zrotation Yrotation
				JOINT RightWrist
				{
					OFFSET 0.000000 -0.264825 0.000000 
					CHANNELS 2 Zrotation Xrotation
					End Site
					{
						OFFSET 0.006600 -0.176220 0.000990 
					}
				}
			}
		}
		JOINT LeftShoulder
		{
			OFFSET 0.019635 0.377685 -0.194865 
			CHANNELS 3 Zrotation Xrotation Yrotation
			JOINT LeftElbow
			{
				OFFSET 0.000000 -0.243375 0.000000 
				CHANNELS 2 Zrotation Yrotation
				JOINT LeftWrist
				{
					OFFSET 0.000000 -0.264825 0.000000 
					CHANNELS 2 Zrotation Xrotation
					End Site
					{
						OFFSET 0.006600 -0.176220 -0.000990 
					}
				}
			}
		}
	}
	JOINT RightHip
	{
		OFFSET 0.052140 -0.069960 0.075570 
		CHANNELS 3 Zrotation Xrotation Yrotation
		JOINT RightKnee
		{
			OFFSET 0.000000 -0.402270 0.000000 
			CHANNELS 1 Zrotation
			JOINT RightAnkle
			{
				OFFSET 0.000000 -0.404085 0.000000 
				CHANNELS 3 Zrotation Xrotation Yrotation
				End Site
				{
					OFFSET 0.204105 -0.089430 0.008415 
				}
			}
		}
	}
	JOINT LeftHip
	{
		OFFSET 0.052140 -0.069960 -0.075570 
		CHANNELS 3 Zrotation Xrotation Yrotation
		JOINT LeftKnee
		{
			OFFSET 0.000000 -0.402270 0.000000 
			CHANNELS 1 Zrotation
			JOINT LeftAnkle
			{
				OFFSET 0.000000 -0.404085 0.000000 
				CHANNELS 3 Zrotation Xrotation Yrotation
				End Site
				{
					OFFSET 0.204105 -0.089430 -0.008415 
				}
			}
		}
	}
}
MOTION
Frames: 11
Frame Time: 0.02
-0.00021 -0.00013 -0.00033 24.32924 -32.20361 -4.44146 49.26884 1.61371 -7.18204 9.85808 -3.89301 -0.47014 -13.22405 -11.95001 6.86686 34.24238 63.74415 -2.51267 -3.18767 11.71994 6.48775 -2.04866 44.64183 -93.10897 5.08168 -1.46326 42.84156 -0.01549 -2.60208 -19.2339 -6.8148 -4.92233 -3.29969 48.19758 5.43288 12.05682 -25.2239 -6.2404 1.77166 1.45062
-0.00047 -0.00018 9e-05 24.08833 -32.14332 -4.4525 49.27569 1.61742 -7.14863 9.47897 -3.63787 -0.47066 -13.48518 -11.40176 5.0793 34.20744 69.68995 -0.89085 -2.29559 9.23141 7.1808 -2.72813 44.52447 -94.23885 5.84007 -1.48743 42.84236 -0.02514 -2.83432 -19.25539 -6.78852 -4.89004 -3.27497 48.17084 5.27199 11.17932 -25.22394 -6.23679 1.88105 1.5213
-0.00073 -0.00022 0.0005 23.84799 -32.08315 -4.4635 49.28253 1.62117 -7.11529 9.10048 -3.38326 -0.47121 -13.74584 -10.85498 3.29606 34.17238 75.61717 0.7258 -1.40626 6.74736 7.8723 -3.40627 44.40754 -95.36633 6.59707 -1.51151 42.8432 -0.03474 -3.0658 -19.27684 -6.76231 -4.85783 -3.25032 48.14419 5.11164 10.30457 -25.22397 -6.2332 1.99013 1.59177
-0.00099 -0.00027 0.00092 23.60779 -32.02304 -4.4745 49.28936 1.62487 -7.08199 8.72246 -3.12886 -0.47173 -14.00622 -10.30836 1.51383 34.13753 81.54493 2.3427 -0.51688 4.26596 8.56332 -4.08379 44.29054 -96.49294 7.3533 -1.5356 42.844 -0.04436 -3.29731 -19.29827 -6.73611 -4.82564 -3.22568 48.11753 4.95126 9.42979 -25.22401 -6.22961 2.09918 1.66223
-0.00125 -0.00031 0.00133 23.36711 -31.96283 -4.48553 49.29621 1.6285 -7.0486 8.344 -2.874 -0.47221 -14.26692 -9.76042 -0.2723 34.10282 87.49047 3.96453 0.37513 1.78133 9.25563 -4.76228 44.17312 -97.62145 8.11053 -1.55978 42.84476 -0.05405 -3.52962 -19.31975 -6.70983 -4.79337 -3.20098 48.0908 4.79033 8.55221 -25.22407 -6.22598 2.20853 1.73289
-0.00152 -0.00036 0.00175 23.12751 -31.90276 -4.49649 49.30303 1.63251 -7.01537 7.96548 -2.61993 -0.47292 -14.52749 -9.21616 -2.04935 34.06701 93.37836 5.57005 1.2587 -0.70134 9.94537 -5.4396 44.05726 -98.74662 8.86693 -1.58364 42.84577 -0.06345 -3.75938 -19.34113 -6.68377 -4.76127 -3.17644 48.0643 4.63119 7.68345 -25.22404 -6.22247 2.31705 1.80294
-0.00177 -0.0004 0.00216 22.88597 -31.84246 -4.50757 49.30989 1.63574 -6.98191 7.58754 -2.36458 -0.47317 -14.78805 -8.66495 -3.8426 34.03361 99.37775 7.20728 2.15854 -3.18524 10.63962 -6.11869 43.93829 -99.87747 9.6243 -1.60813 42.84626 -0.0734 -3.99392 -19.36267 -6.65731 -4.72887 -3.1516 48.03735 4.46865 6.79801 -25.22419 -6.21873 2.42712 1.87415
-0.00203 -0.00045 0.00258 22.64627 -31.78239 -4.51854 49.31673 1.63972 -6.94857 7.20899 -2.11038 -0.47382 -15.0486 -8.12038 -5.62112 33.99768 105.27067 8.81408 3.04291 -5.66793 11.3295 -6.79584 43.82235 -101.00274 10.38057 -1.63202 42.84726 -0.08288 -4.2242 -19.38407 -6.63121 -4.69675 -3.12703 48.01085 4.30921 5.92778 -25.22417 -6.21521 2.53576 1.94429
-0.00231 -0.00049 0.003 22.4085 -31.7225 -4.52937 49.32347 1.6445 -6.91571 6.82974 -1.85753 -0.47505 -15.30939 -7.58275 -7.38178 33.95983 111.05039 10.38905 3.9106 -8.15108 12.01526 -7.47228 43.70947 -102.12322 11.13679 -1.65526 42.84875 -0.09166 -4.44877 -19.4053 -6.60554 -4.66496 -3.10282 47.98473 4.15361 5.07643 -25.22397 -6.21193 2.64268 2.01313
-0.00253 -0.00054 0.0034 22.15863 -31.66127 -4.541 49.33057 1.64433 -6.88108 6.45465 -1.59674 -0.47321 -15.56955 -7.00166 -9.24569 33.93655 117.53253 12.16332 4.881 -10.63757 12.72844 -8.15781 43.57704 -103.27741 11.8972 -1.68248 42.84704 -0.10411 -4.70469 -19.42752 -6.57739 -4.63124 -3.07662 47.95594 3.97607 4.11729 -25.22489 -6.20719 2.7596 2.0895
-0.00286 -0.00059 0.00384 21.93496 -31.60307 -4.55095 49.33706 1.65481 -6.84956 6.07079 -1.35285 -0.4777 -15.83054 -6.51458 -10.89118 33.88032 122.4996 13.50667 5.6303 -13.11265 13.38127 -8.82085 43.48708 -104.35635 12.64612 -1.70116 42.85231 -0.10902 -4.89545 -19.44765 -6.55448 -4.6016 -3.05459 47.93309 3.84475 3.3851 -25.2234 -6.20555 2.85534 2.14996
